<svg width="33" height="31" fill="none" xmlns="http://www.w3.org/2000/svg">
    <path d="m23.373 2.513.004-.087a1.807 1.807 0 0 0-.487-1.353c-.454-.476-1.16-.682-1.896-.55l-7.934 1.43c-.393-.482-.952-.764-1.554-.764-.505 0-1.005.199-1.41.56l-6.46 5.77a2.152 2.152 0 0 0-.74 1.648c.003.162.03.321.071.476-.433.31-.75.814-.853 1.434L.901 18.45l-.088-.003.059.176-.136.824c-.11.667.051 1.313.44 1.77.227.268.52.447.845.547 1.38 3.339 4.248 9.017 7.783 9.017.522 0 1.037-.122 1.534-.363 2.072-1.01 1.889-5.795 1.526-8.918h.013c1.1-.038 2.168-.999 2.432-2.19l.084-.378a2.71 2.71 0 0 0 1.2-.522l2.307-1.808c.312-.245.546-.561.713-.909l.921-.113c1.04-.128 1.913-.866 2.2-1.774 1.712.484 4.138 1.06 6.008 1.06h.002c1.494 0 2.459-.364 2.949-1.113.551-.845.696-1.796.43-2.829-.856-3.33-6.108-6.832-8.75-8.411zm7.028 10.396c-.063.097-.371.415-1.657.415-1.78 0-4.222-.607-5.855-1.08l.397-7.978c2.837 1.773 6.729 4.657 7.344 7.045.155.602.08 1.125-.229 1.598zm-9.105.295a.58.58 0 0 1-.036.16c-.109.308-.47.631-.914.685l-.481.06a2.541 2.541 0 0 0-.306-.886l-5.647-9.856 6.834-1.23.521-.094a.956.956 0 0 1 .168-.016c.147 0 .27.04.337.11.017.019.07.075.063.212l-.008.164-.5 10.06-.031.63zm-3.349 2.185-.703.551-1.437 1.127-.166.13c-.181.142-.44.215-.703.225a1.37 1.37 0 0 1-.753-.174c-.033-.02-.069-.039-.099-.063l-5.448-4.41-2.128-1.72-1.823-1.476a.733.733 0 0 1-.15-.166.53.53 0 0 1-.097-.283c-.004-.163.076-.326.225-.46l6.46-5.77a.65.65 0 0 1 .24-.136c.046-.015.094-.032.141-.032.17 0 .324.107.435.3l.082.144.45.785L18.22 13.99a.972.972 0 0 1 .107.307c.048.265.001.556-.13.793a.995.995 0 0 1-.25.299zm-4.146 3.589c-.12.546-.615.968-.976.98l-.169.006-.78.027-4.927.169-3.855.132-.515.017-.013.715-.002.053v-.768a.257.257 0 0 1-.211-.09c-.094-.11-.128-.305-.093-.521l.072-.436.127-.77 1.18-7.164c.033-.205.118-.363.221-.432l9.255 7.49c.215.173.463.306.728.405l-.042.187zm-3.14 10.053c-.287.14-.568.208-.857.208-2.136 0-4.515-3.853-6.083-7.425l7.588-.259c.405 3.548.275 7.026-.648 7.476z" fill="#F1F2F6"/>
</svg>
