<svg width="33" height="26" fill="none" xmlns="http://www.w3.org/2000/svg">
    <path d="M9.089 3.228a3.085 3.085 0 0 1 4.01-.429l.189.13a4.045 4.045 0 0 0 4.092.287 3.094 3.094 0 0 1 2.598-.075l-10.89.087zm0 0L7.413 5.005l-.469.497.64.239 8.05 3.001.462.172.134-.473a4.214 4.214 0 0 1 4.9-2.976l.82.169M9.089 3.228l12.86 2.406m0 0-.306-.78m.307.78-.307-.78m0 0a3.093 3.093 0 0 0-1.665-1.713l1.665 1.713zm7.699 3.895.073.363h2.474v2.943c0 5.158-2.57 9.942-6.875 12.797l-.119.079H8.19l-.12-.079a15.323 15.323 0 0 1-6.874-12.797V9.112h2.075V4.133l2.43.906.283.105.206-.219L8.401 2.58a4.046 4.046 0 0 1 5.232-.559l.19.13a3.1 3.1 0 0 0 3.136.22 4.036 4.036 0 0 1 3.39-.1 4.036 4.036 0 0 1 2.273 2.518l.216.697.154.493.469-.216a4.204 4.204 0 0 1 5.88 2.986zm-1.472.363h.639l-.211-.603a3.267 3.267 0 0 0-4.325-1.939l-.513.212.31.46c.302.45.52.96.63 1.507l.074.363h3.396zm-4.941 0h.639l-.212-.603a3.267 3.267 0 0 0-3.079-2.187 3.267 3.267 0 0 0-3.08 2.187l-.21.603h5.942zM4.827 5.722l-.612-.229V9.112h7.194l.159-.878-6.74-2.513zm26.117 4.79v-.455H2.595v.454h-.453v.276l.002.613c0 .446.002.918.003.975l.01.444H30.929l.01-.444c.001-.057.003-.529.003-.975l.002-.614v-.274zM8.358 23.905l.116.08H24.47v-.453l.258.373a14.38 14.38 0 0 0 6.044-9.62l.081-.523H2.232l.082.524a14.38 14.38 0 0 0 6.044 9.619z" fill="#0A191E" stroke="#008D36" stroke-width=".907"/>
</svg>
