<svg width="21" height="22" fill="none" xmlns="http://www.w3.org/2000/svg">
    <path d="M5.781 3.719H3.47V6.03H5.78V3.72z" fill="#BDBDBD"/>
    <path d="M0 3.14A2.89 2.89 0 0 1 2.89.25h3.47a2.89 2.89 0 0 1 2.89 2.89v3.47A2.89 2.89 0 0 1 6.36 9.5H2.89A2.89 2.89 0 0 1 0 6.61V3.14zm2.89-.578a.578.578 0 0 0-.578.579v3.468a.578.578 0 0 0 .579.579h3.468a.578.578 0 0 0 .579-.579V3.141a.578.578 0 0 0-.579-.579H2.891zM3.469 15.281H5.78v2.313H3.47V15.28z" fill="#BDBDBD"/>
    <path d="M0 14.703a2.89 2.89 0 0 1 2.89-2.89h3.47a2.89 2.89 0 0 1 2.89 2.89v3.469a2.89 2.89 0 0 1-2.89 2.89H2.89A2.89 2.89 0 0 1 0 18.172v-3.469zm2.89-.578a.578.578 0 0 0-.578.578v3.469a.578.578 0 0 0 .579.578h3.468a.578.578 0 0 0 .579-.578v-3.469a.578.578 0 0 0-.579-.578H2.891zM17.344 3.719H15.03V6.03h2.313V3.72z" fill="#BDBDBD"/>
    <path d="M14.453.25a2.89 2.89 0 0 0-2.89 2.89v3.47a2.89 2.89 0 0 0 2.89 2.89h3.469a2.89 2.89 0 0 0 2.89-2.89V3.14a2.89 2.89 0 0 0-2.89-2.89h-3.469zm-.578 2.89a.578.578 0 0 1 .578-.578h3.469a.578.578 0 0 1 .578.579v3.468a.578.578 0 0 1-.578.579h-3.469a.578.578 0 0 1-.578-.579V3.141zM11.563 11.813h3.18v3.18h-3.18v-3.18z" fill="#BDBDBD"/>
    <path d="M17.633 14.992h-2.89v2.89h-3.18v3.18h3.18v-3.18h2.89v3.18h3.18v-3.18h-3.18v-2.89zM17.633 14.992v-3.18h3.18v3.18h-3.18z" fill="#BDBDBD"/>
</svg>
