<svg width="19" height="17" fill="none" xmlns="http://www.w3.org/2000/svg">
    <path d="M16.602 1.5a5.744 5.744 0 0 1 1.722 2.602 5.449 5.449 0 0 1 0 2.812c-.281.95-.703 1.758-1.336 2.39l-6.152 6.258a1.836 1.836 0 0 1-1.336.563c-.527 0-.984-.176-1.336-.563L2.012 9.306C1.379 8.672.922 7.863.676 6.915c-.281-.95-.246-1.9.035-2.813.281-.985.844-1.864 1.687-2.602C3.031.937 3.805.586 4.684.445A5.335 5.335 0 0 1 7.25.656 5.721 5.721 0 0 1 9.5 2.027a5.594 5.594 0 0 1 2.215-1.37 5.444 5.444 0 0 1 2.601-.212c.844.14 1.618.492 2.286 1.055zm-.809 6.61c.422-.422.703-.985.879-1.618a3.61 3.61 0 0 0 0-1.933 3.862 3.862 0 0 0-1.16-1.758c-.703-.563-1.512-.809-2.426-.739a3.562 3.562 0 0 0-2.356 1.126L9.5 4.418l-1.23-1.23c-.668-.668-1.477-1.055-2.391-1.126-.914-.07-1.723.176-2.39.739-.598.492-.985 1.09-1.16 1.758-.212.632-.212 1.3-.036 1.933s.492 1.196.914 1.617l6.188 6.258c.07.106.14.106.21 0l6.188-6.258z" fill="#fff"/>
</svg>
