<svg width="34" height="34" fill="none" xmlns="http://www.w3.org/2000/svg">
    <mask id="a" fill="#fff">
        <path d="M33.382 32.863a.63.63 0 0 0 .128-.658L23.52 6.29a3.443 3.443 0 0 0-4.38-4.874A33.775 33.775 0 0 0 8.32 9.05a33.773 33.773 0 0 0-7.075 11.195 3.451 3.451 0 0 0 1.979 4.453c.9.346 1.859.287 2.674-.087l26.835 8.422a.63.63 0 0 0 .649-.17zm-9.687-22.616 1.059 2.747a1.603 1.603 0 0 1-2.376-.134 1.594 1.594 0 0 1-.348-1.178c.045-.427.254-.81.587-1.08a1.594 1.594 0 0 1 1.078-.355zM3.675 23.522a2.188 2.188 0 0 1-1.254-2.825c3.134-8.147 9.254-14.586 17.231-18.13a2.171 2.171 0 0 1 1.672-.043c.545.21.976.619 1.213 1.152.237.534.252 1.128.042 1.672-.21.545-.619.976-1.152 1.213a28.17 28.17 0 0 0-9.025 6.368A28.17 28.17 0 0 0 6.5 22.267a2.188 2.188 0 0 1-2.824 1.255zm19.238 5.108a1.595 1.595 0 0 1 .595-1.25 1.607 1.607 0 0 1 2.606 1.418 1.605 1.605 0 0 1-.282.749l-2.92-.917zm4.154 1.304a2.868 2.868 0 0 0-2.248-4.155 2.846 2.846 0 0 0-2.104.621 2.844 2.844 0 0 0-1.037 1.843l-3.69-1.158 1.067-1.468a.63.63 0 0 0-1.019-.741l-1.317 1.81-9.6-3.012c.23-.28.42-.599.557-.955 2.595-6.743 7.66-12.073 14.263-15.006.23-.102.442-.227.637-.37l.644 1.67c-.507.073-.986.28-1.395.61a2.846 2.846 0 0 0-1.063 2.307c.016.626.236 1.227.637 1.722a2.86 2.86 0 0 0 3.83.573l2.99 7.757-.709.315a.63.63 0 1 0 .511 1.15l.651-.288 3.192 8.28-4.797-1.505z"/>
    </mask>
    <path d="M33.382 32.863a.63.63 0 0 0 .128-.658L23.52 6.29a3.443 3.443 0 0 0-4.38-4.874A33.775 33.775 0 0 0 8.32 9.05a33.773 33.773 0 0 0-7.075 11.195 3.451 3.451 0 0 0 1.979 4.453c.9.346 1.859.287 2.674-.087l26.835 8.422a.63.63 0 0 0 .649-.17zm-9.687-22.616 1.059 2.747a1.603 1.603 0 0 1-2.376-.134 1.594 1.594 0 0 1-.348-1.178c.045-.427.254-.81.587-1.08a1.594 1.594 0 0 1 1.078-.355zM3.675 23.522a2.188 2.188 0 0 1-1.254-2.825c3.134-8.147 9.254-14.586 17.231-18.13a2.171 2.171 0 0 1 1.672-.043c.545.21.976.619 1.213 1.152.237.534.252 1.128.042 1.672-.21.545-.619.976-1.152 1.213a28.17 28.17 0 0 0-9.025 6.368A28.17 28.17 0 0 0 6.5 22.267a2.188 2.188 0 0 1-2.824 1.255zm19.238 5.108a1.595 1.595 0 0 1 .595-1.25 1.607 1.607 0 0 1 2.606 1.418 1.605 1.605 0 0 1-.282.749l-2.92-.917zm4.154 1.304a2.868 2.868 0 0 0-2.248-4.155 2.846 2.846 0 0 0-2.104.621 2.844 2.844 0 0 0-1.037 1.843l-3.69-1.158 1.067-1.468a.63.63 0 0 0-1.019-.741l-1.317 1.81-9.6-3.012c.23-.28.42-.599.557-.955 2.595-6.743 7.66-12.073 14.263-15.006.23-.102.442-.227.637-.37l.644 1.67c-.507.073-.986.28-1.395.61a2.846 2.846 0 0 0-1.063 2.307c.016.626.236 1.227.637 1.722a2.86 2.86 0 0 0 3.83.573l2.99 7.757-.709.315a.63.63 0 1 0 .511 1.15l.651-.288 3.192 8.28-4.797-1.505z" fill="#0A191E"/>
    <path d="m33.382 32.863 1.983 1.861-1.983-1.861zm.128-.658-2.538.979v.003l2.538-.982zM23.52 6.29l-2.357-1.36-.65 1.126.468 1.213 2.538-.979zm.168-3.124 2.486-1.105-2.486 1.105zm-4.548-1.75-1.104-2.486 1.104 2.486zM1.245 20.245l-2.54-.977 2.54.977zm-.229 1.32-2.72.07 2.72-.07zm2.207 3.133.977-2.54-.977 2.54zm2.675-.087.814-2.596-.998-.313-.951.436 1.135 2.473zm26.835 8.422-.814 2.595.814-2.595zm-9.038-22.786 2.538-.978-.64-1.661-1.778-.079-.12 2.718zm1.059 2.747 1.912 1.935 1.267-1.251-.64-1.663-2.54.979zm-1.296.454-.287 2.705.287-2.705zm-1.428-1.766-2.705-.287v.001l2.705.286zm.587-1.08 1.71 2.116-1.71-2.116zM3.676 23.523l.977-2.54-.977 2.54zM2.42 20.697l2.539.977-2.54-.977zm17.231-18.13 1.105 2.485-1.105-2.486zm1.672-.043.977-2.54-.977 2.54zm.103 4.037 1.105 2.486-1.105-2.486zM6.5 22.267l-2.539-.977 2.54.977zm16.413 6.363-2.72.003.002 1.995 1.903.598.815-2.596zm.007-.17-2.705-.288v.004l2.705.283zm.587-1.08 1.71 2.115h.001l-1.71-2.115zm1.179-.348.286-2.706-.286 2.706zm1.427 1.765 2.706.287-2.706-.287zm-.281.75-.815 2.595 1.903.597 1.142-1.635-2.23-1.557zm1.235.387-2.422-1.24-1.469 2.87 3.076.966.815-2.596zm.3-1.004-2.706-.288v.002l2.705.286zm-2.549-3.151-.286 2.705.287-2.705zm-2.103.621-1.71-2.115 1.71 2.115zm-1.037 1.843-.814 2.596 3.08.966.43-3.198-2.695-.364zm-3.69-1.158-2.2-1.601-2.229 3.062 3.614 1.134.814-2.595zm1.067-1.468 2.2 1.6-2.2-1.6zm-.139-.88-1.6 2.2 1.6-2.2zm-.88.139-2.2-1.6 2.2 1.6zm-1.317 1.81-.815 2.596 1.865.585 1.15-1.58-2.2-1.6zm-9.6-3.012L5.02 21.942l-2.575 3.117 3.858 1.21.814-2.595zm.557-.955 2.54.977-2.54-.977zM21.94 7.713l-1.105-2.487 1.105 2.487zm.637-.37 2.538-.979-1.278-3.315-2.867 2.099 1.607 2.195zm.644 1.67.382 2.694 3.386-.48-1.23-3.192-2.538.979zm-1.395.61 1.71 2.116-1.71-2.116zm-1.047 1.926 2.705.287-2.705-.287zm.62 2.103-2.115 1.71 2.116-1.71zm1.927 1.048-.286 2.706.286-2.706zm1.904-.474 2.538-.979-1.229-3.188-2.831 1.912 1.522 2.255zm2.99 7.756 1.104 2.486 2.364-1.05-.93-2.415-2.538.979zm-.709.315-1.105-2.486 1.105 2.486zm-.32.831-2.486 1.104 2.486-1.104zm.831.32 1.105 2.486-1.105-2.486zm.651-.29 2.539-.978-1.03-2.669-2.613 1.162 1.104 2.486zm3.192 8.282-.814 2.595 5.382 1.69-2.03-5.264-2.538.979zm3.502 3.284a3.35 3.35 0 0 0 .68-3.5l-5.073 1.963a2.091 2.091 0 0 1 .424-2.185l3.969 3.722zm.682-3.497L26.058 5.31 20.98 7.268l9.99 25.916 5.077-1.957zM25.876 7.649a6.163 6.163 0 0 0 .298-5.589L21.202 4.27a.723.723 0 0 1-.039.66l4.713 2.72zm.298-5.59a6.17 6.17 0 0 0-8.138-3.13L20.245 3.9a.73.73 0 0 1 .957.368l4.972-2.21zm-8.138-3.13A36.494 36.494 0 0 0 6.348 7.176l3.944 3.748a31.054 31.054 0 0 1 9.953-7.023l-2.21-4.972zM6.348 7.176a36.493 36.493 0 0 0-7.642 12.092l5.078 1.954a31.051 31.051 0 0 1 6.508-10.298L6.348 7.176zm-7.642 12.092a6.148 6.148 0 0 0-.41 2.366l5.44-.138a.707.707 0 0 1 .048-.275l-5.078-1.953zm-.41 2.366a6.171 6.171 0 0 0 3.95 5.603L4.2 22.159a.73.73 0 0 1-.465-.663l-5.439.138zm3.95 5.603a6.156 6.156 0 0 0 4.787-.154l-2.27-4.944a.715.715 0 0 1-.563.02l-1.953 5.078zm2.837-.03 26.836 8.421 1.63-5.19-26.837-8.423-1.629 5.191zm26.836 8.422a3.35 3.35 0 0 0 3.446-.905l-3.967-3.722a2.09 2.09 0 0 1 2.15-.565l-1.629 5.192zM21.157 11.226l1.058 2.746 5.077-1.957-1.059-2.746-5.076 1.957zm1.685-.168c.235-.232.566-.351.902-.316l-.572 5.41a4.323 4.323 0 0 0 3.494-1.223l-3.824-3.87zm.903-.316c.29.031.565.18.749.408l-4.23 3.42a4.316 4.316 0 0 0 2.907 1.583l.574-5.41zm.749.408c.184.228.272.528.242.817l-5.411-.57a4.315 4.315 0 0 0 .938 3.174l4.23-3.421zm.241.819c-.03.29-.18.565-.407.749l-3.421-4.231a4.315 4.315 0 0 0-1.582 2.908l5.41.574zm-.407.749c-.21.169-.48.259-.752.247l.239-5.436a4.314 4.314 0 0 0-2.908.958l3.42 4.23zM4.653 20.983a.532.532 0 0 1 .307.691L-.118 19.72a4.908 4.908 0 0 0 2.817 6.34l1.954-5.077zm.307.69C7.835 14.2 13.439 8.305 20.757 5.054L18.547.08C9.911 3.918 3.275 10.9-.118 19.72l5.078 1.954zm15.797-16.62a.55.55 0 0 1-.41.01l1.954-5.078a4.892 4.892 0 0 0-3.754.095l2.21 4.972zm-.41.01a.55.55 0 0 1-.296-.282l4.972-2.21A4.892 4.892 0 0 0 22.3-.014l-1.953 5.078zm-.296-.282a.55.55 0 0 1-.01-.41l5.077 1.954a4.892 4.892 0 0 0-.095-3.753L20.05 4.78zm-.01-.41a.55.55 0 0 1 .281-.296l2.21 4.972a4.892 4.892 0 0 0 2.586-2.722L20.04 4.372zm.281-.296a30.89 30.89 0 0 0-9.892 6.98l3.944 3.748a25.448 25.448 0 0 1 8.158-5.756l-2.21-4.972zm-9.892 6.98A30.89 30.89 0 0 0 3.96 21.29l5.078 1.954a25.45 25.45 0 0 1 5.335-8.44l-3.944-3.749zM3.96 21.29a.533.533 0 0 1 .692-.307L2.699 26.06a4.908 4.908 0 0 0 6.34-2.818L3.961 21.29zm21.672 7.337v.032l-.007.084-5.411-.567c-.02.184-.023.344-.023.457l5.441-.006zm-.007.119c-.031.29-.18.565-.408.75l-3.42-4.232a4.315 4.315 0 0 0-1.583 2.909l5.41.573zm-.408.75a1.126 1.126 0 0 1-.818.24l.572-5.41a4.315 4.315 0 0 0-3.175.939l3.421 4.23zm-.819.24a1.113 1.113 0 0 1-.99-1.224l5.41.571a4.328 4.328 0 0 0-3.847-4.757l-.573 5.41zm-.99-1.225c.02-.199.091-.377.193-.522l4.46 3.115c.41-.586.678-1.278.757-2.02l-5.41-.573zm3.238-1.56-2.92-.916-1.629 5.19 2.92.917 1.629-5.19zm2.841 4.223c.31-.604.51-1.267.584-1.958l-5.411-.572a.143.143 0 0 1-.016.05l4.843 2.48zm.583-1.957a5.588 5.588 0 0 0-4.966-6.143l-.573 5.41c.037.004.07.02.097.054a.134.134 0 0 1 .032.104l5.41.575zm-4.966-6.143a5.567 5.567 0 0 0-4.1 1.21l3.42 4.232a.143.143 0 0 1 .05-.028.143.143 0 0 1 .057-.004l.573-5.41zm-4.1 1.21a5.565 5.565 0 0 0-2.022 3.596l5.392.727a.14.14 0 0 1 .015-.051.14.14 0 0 1 .036-.04l-3.421-4.231zm1.488 1.364-3.691-1.159-1.63 5.191 3.692 1.159 1.629-5.191zm-2.306 3.037 1.067-1.467-4.399-3.201-1.068 1.467 4.4 3.201zm1.068-1.468a3.35 3.35 0 0 0-.739-4.68l-3.2 4.4a2.09 2.09 0 0 1-.461-2.92l4.4 3.2zm-.738-4.68a3.35 3.35 0 0 0-4.68.738l4.399 3.202a2.09 2.09 0 0 1-2.92.46l3.2-4.4zm-4.68.738-1.318 1.811 4.4 3.201 1.317-1.81-4.4-3.202zm1.696.816-9.6-3.013-1.63 5.191 9.601 3.013 1.63-5.19zm-8.317 1.315a6.15 6.15 0 0 0 1-1.71l-5.079-1.954a.71.71 0 0 1-.116.2l4.195 3.464zm1-1.71C12.55 17.626 17.1 12.84 23.042 10.2l-2.209-4.973c-7.262 3.227-12.843 9.1-15.697 16.517l5.078 1.953zM23.042 10.2a6.166 6.166 0 0 0 1.14-.661l-3.215-4.39a.723.723 0 0 1-.134.078l2.209 4.973zM20.037 8.32l.644 1.671 5.077-1.957-.644-1.67-5.077 1.956zm2.8-2a5.567 5.567 0 0 0-2.722 1.187l3.42 4.23a.159.159 0 0 1 .037-.022.11.11 0 0 1 .03-.009l-.764-5.387zm-2.722 1.186a5.566 5.566 0 0 0-2.043 3.756l5.41.572a.143.143 0 0 1 .016-.054.142.142 0 0 1 .038-.043l-3.42-4.23zm-2.043 3.755c-.026.245-.035.491-.03.737l5.44-.138v-.025l-5.41-.574zm-.03.737a5.564 5.564 0 0 0 1.241 3.364l4.231-3.42a.152.152 0 0 1-.025-.044.12.12 0 0 1-.007-.038l-5.44.138zm1.241 3.364a5.567 5.567 0 0 0 3.756 2.043l.573-5.41a.145.145 0 0 1-.055-.016.143.143 0 0 1-.043-.038l-4.23 3.42zm3.756 2.043a5.581 5.581 0 0 0 3.712-.926l-3.044-4.51a.14.14 0 0 1-.096.025l-.572 5.41zm-.349-2.202 2.99 7.756 5.077-1.957-2.99-7.756-5.077 1.957zm4.424 4.292-.709.315 2.21 4.972.708-.315-2.209-4.972zm-.71.315a3.35 3.35 0 0 0-1.988 3.147l5.44-.139a2.09 2.09 0 0 1-1.241 1.963l-2.21-4.971zm-1.988 3.147c.011.432.106.865.288 1.274l4.973-2.208c.112.253.172.524.178.795l-5.439.139zm.288 1.275a3.35 3.35 0 0 0 4.422 1.7l-2.209-4.971a2.09 2.09 0 0 1 2.76 1.061l-4.973 2.21zm4.422 1.7.65-.288-2.208-4.972-.651.289 2.209 4.972zm-2.992-1.796 3.192 8.281 5.077-1.957-3.192-8.28-5.077 1.956zm6.545 4.707-4.798-1.506-1.629 5.192 4.798 1.505 1.63-5.19z" fill="#008D36" mask="url(#a)"/>
    <path d="M16.194 7.15a.627.627 0 0 1-.152.876l-.003.003-.007.005-.003.002a.63.63 0 0 1-.869-.159l.51-.358.004-.003h.001l.002-.002.002-.001v-.001l.004-.002.511-.36zm0 0a.63.63 0 0 0-.87-.158l-.003.002-.003.002a.629.629 0 0 0-.157.88l.509-.357.004-.003.001-.001.002-.001.002-.001v-.001l.002-.001.513-.36z" fill="#0A191E" stroke="#008D36" stroke-width="2.72"/>
    <mask id="b" fill="#fff">
        <path d="M17.568 7.04a29.818 29.818 0 0 1 3.305-1.725.63.63 0 0 0-.511-1.152c-1.181.525-2.34 1.13-3.445 1.798a.63.63 0 1 0 .651 1.078z"/>
    </mask>
    <path d="M17.568 7.04a29.818 29.818 0 0 1 3.305-1.725.63.63 0 0 0-.511-1.152c-1.181.525-2.34 1.13-3.445 1.798a.63.63 0 1 0 .651 1.078z" fill="#0A191E"/>
    <path d="M17.568 7.04 16.161 4.71l1.407 2.328zm3.305-1.725L19.77 2.828l1.104 2.487zm.32-.832-2.486 1.105 2.486-1.105zm-.831-.32 1.104 2.486-1.104-2.486zm-3.445 1.798-1.408-2.328 1.408 2.328zm-.214.865-2.327 1.407 2.327-1.407zm2.273 2.541a27.101 27.101 0 0 1 3.002-1.566l-2.21-4.972a32.53 32.53 0 0 0-3.607 1.882l2.815 4.656zm3.001-1.566a3.35 3.35 0 0 0 1.702-4.423l-4.972 2.21a2.09 2.09 0 0 1 1.062-2.76l2.208 4.973zm1.702-4.422a3.35 3.35 0 0 0-4.422-1.701l2.21 4.971a2.09 2.09 0 0 1-2.76-1.061l4.972-2.21zm-4.422-1.702a33.787 33.787 0 0 0-3.748 1.956l2.815 4.656a28.345 28.345 0 0 1 3.142-1.64l-2.209-4.972zm-3.748 1.956a3.35 3.35 0 0 0-1.616 2.953l5.44-.139a2.09 2.09 0 0 1-1.009 1.842L15.51 3.633zm-1.616 2.953c.015.566.173 1.135.482 1.647l4.656-2.815c.193.319.292.675.301 1.03l-5.439.138zm.483 1.648a3.35 3.35 0 0 0 4.6 1.133L16.16 4.71a2.09 2.09 0 0 1 2.871.707l-4.655 2.816z" fill="#008D36" mask="url(#b)"/>
    <mask id="c" fill="#fff">
        <path d="M25.19 20.716a2.872 2.872 0 0 0-2.548-3.151 2.868 2.868 0 0 0-3.166 2.925 2.872 2.872 0 0 0 2.563 2.773 2.868 2.868 0 0 0 3.151-2.547zm-3.018 1.295a1.609 1.609 0 0 1-1.428-1.766c.093-.88.886-1.52 1.766-1.427a1.609 1.609 0 0 1 1.427 1.765 1.608 1.608 0 0 1-1.765 1.428z"/>
    </mask>
    <path d="M25.19 20.716a2.872 2.872 0 0 0-2.548-3.151 2.868 2.868 0 0 0-3.166 2.925 2.872 2.872 0 0 0 2.563 2.773 2.868 2.868 0 0 0 3.151-2.547zm-3.018 1.295a1.609 1.609 0 0 1-1.428-1.766c.093-.88.886-1.52 1.766-1.427a1.609 1.609 0 0 1 1.427 1.765 1.608 1.608 0 0 1-1.765 1.428z" fill="#0A191E"/>
    <path d="m25.19 20.716-2.705-.288v.002l2.705.286zm-2.548-3.151-.286 2.705.286-2.705zm-3.15 2.547 2.705.288V20.4l-2.705-.287zm2.547 3.151-.286 2.706.286-2.706zm.133-1.252-.287 2.705.287-2.705zm-1.428-1.766 2.705.288v-.001l-2.705-.287zm1.766-1.427.286-2.706-.286 2.706zm1.427 1.765-2.705-.288v.002l2.705.286zm3.958.42c.026-.243.036-.49.03-.734l-5.44.139v.02l5.41.576zm.03-.734a5.592 5.592 0 0 0-4.996-5.41l-.573 5.411a.14.14 0 0 1 .09.048.135.135 0 0 1 .04.09l5.439-.139zm-4.996-5.41a5.589 5.589 0 0 0-6.143 4.967l5.41.573a.136.136 0 0 1 .055-.096.136.136 0 0 1 .105-.033l.573-5.41zm-6.143 4.966c-.026.244-.035.49-.03.734l5.44-.138v-.02l-5.41-.576zm-.03.734a5.592 5.592 0 0 0 4.997 5.41l.573-5.41a.142.142 0 0 1-.09-.049.134.134 0 0 1-.04-.09l-5.44.139zm4.997 5.41a5.589 5.589 0 0 0 6.142-4.967l-5.41-.572a.136.136 0 0 1-.054.096.136.136 0 0 1-.105.032l-.573 5.41zm.705-6.664c.555.06.983.515.997 1.084l-5.439.138a4.329 4.329 0 0 0 3.87 4.189l.572-5.41zm.997 1.084c.002.048 0 .096-.006.144l-5.41-.576c-.02.19-.028.38-.023.57l5.44-.138zm-.005.143a1.113 1.113 0 0 1-1.226.99l.572-5.41a4.328 4.328 0 0 0-4.757 3.847l5.41.573zm-1.226.99a1.112 1.112 0 0 1-.998-1.082l5.44-.139a4.329 4.329 0 0 0-3.87-4.189l-.572 5.41zm-.998-1.082c0-.049.001-.096.006-.145l5.41.576c.02-.19.028-.38.024-.57l-5.44.139zm.006-.143a1.113 1.113 0 0 1 1.226-.992l-.572 5.411a4.328 4.328 0 0 0 4.757-3.846l-5.41-.573z" fill="#008D36" mask="url(#c)"/>
    <mask id="d" fill="#fff">
        <path d="M17.354 20.751a2.872 2.872 0 0 0-2.548-3.151 2.847 2.847 0 0 0-2.103.621 2.847 2.847 0 0 0-1.063 2.304 2.872 2.872 0 0 0 2.563 2.774 2.868 2.868 0 0 0 3.15-2.548zm-3.019 1.295a1.609 1.609 0 0 1-1.427-1.765c.045-.427.254-.81.587-1.08a1.608 1.608 0 0 1 2.606 1.417 1.608 1.608 0 0 1-1.766 1.428z"/>
    </mask>
    <path d="M17.354 20.751a2.872 2.872 0 0 0-2.548-3.151 2.847 2.847 0 0 0-2.103.621 2.847 2.847 0 0 0-1.063 2.304 2.872 2.872 0 0 0 2.563 2.774 2.868 2.868 0 0 0 3.15-2.548zm-3.019 1.295a1.609 1.609 0 0 1-1.427-1.765c.045-.427.254-.81.587-1.08a1.608 1.608 0 0 1 2.606 1.417 1.608 1.608 0 0 1-1.766 1.428z" fill="#0A191E"/>
    <path d="m17.354 20.751-2.705-.287 2.705.287zm-2.548-3.15-.287 2.704.287-2.705zm-2.103.62 1.71 2.116-1.71-2.116zm-1.048 1.927 2.705.287-2.705-.287zm2.548 3.15.286-2.705-.286 2.706zm.132-1.252-.286 2.705.286-2.705zm-1.427-1.765-2.705-.287 2.705.287zm1.766-1.428.286-2.705-.287 2.705zm1.427 1.765-2.705-.287v.001l2.705.287zm3.958.42c.026-.243.036-.489.03-.733l-5.44.138v.02l5.41.576zm.03-.733a5.592 5.592 0 0 0-4.997-5.41l-.572 5.41c.03.004.061.017.09.048a.135.135 0 0 1 .04.09l5.438-.138zm-4.996-5.41a5.567 5.567 0 0 0-4.1 1.21l3.42 4.232a.144.144 0 0 1 .05-.028.142.142 0 0 1 .056-.004l.574-5.41zm-4.1 1.21a5.567 5.567 0 0 0-2.043 3.756l5.41.573a.145.145 0 0 1 .016-.055.143.143 0 0 1 .037-.042l-3.42-4.231zM8.95 19.862c-.026.244-.036.49-.03.733l5.44-.138v-.021l-5.41-.574zm-.03.733a5.592 5.592 0 0 0 4.996 5.41l.573-5.41a.14.14 0 0 1-.09-.049.135.135 0 0 1-.04-.09l-5.439.14zm4.996 5.41a5.589 5.589 0 0 0 6.143-4.966l-5.41-.573a.137.137 0 0 1-.054.096.136.136 0 0 1-.106.032l-.573 5.411zm.706-6.663c.555.059.982.514.997 1.083l-5.44.138a4.33 4.33 0 0 0 3.87 4.19l.573-5.411zm.997 1.083c.001.05-.001.097-.006.143l-5.41-.572c-.02.186-.028.377-.023.567l5.439-.138zm-.006.143c-.03.291-.18.565-.407.75l-3.422-4.231a4.316 4.316 0 0 0-1.581 2.908l5.41.573zm-.407.75a1.126 1.126 0 0 1-.819.241l.573-5.41a4.315 4.315 0 0 0-3.176.938l3.422 4.23zm-.819.241a1.112 1.112 0 0 1-.997-1.083l5.44-.138a4.329 4.329 0 0 0-3.87-4.19l-.573 5.411zm-.997-1.083a1.11 1.11 0 0 1 .006-.145l5.41.577c.02-.19.028-.381.023-.57l-5.439.138zm.006-.143a1.113 1.113 0 0 1 1.225-.991l-.572 5.41a4.328 4.328 0 0 0 4.757-3.846l-5.41-.573z" fill="#008D36" mask="url(#d)"/>
    <path d="M18.81 14.457zM15.185 15.668l-.019-.117.019.117zm.499-1.043a.727.727 0 0 1 .124.305v.003a.727.727 0 0 1-.024.33.726.726 0 0 1-.124-.306v-.003a.727.727 0 0 1 .024-.329zm-.695-.2a.63.63 0 0 0 .196 1.244l-.196-1.245z" fill="#0A191E" stroke="#008D36" stroke-width="2.72"/>
</svg>
