<svg width="21" height="21" fill="none" xmlns="http://www.w3.org/2000/svg">
    <g clip-path="url(#a)">
        <path d="M21 15.75a2.333 2.333 0 0 1-2.333 2.333H2.333A2.333 2.333 0 0 1 0 15.75V5.25a2.333 2.333 0 0 1 2.333-2.333h16.334A2.333 2.333 0 0 1 21 5.25v10.5z" fill="#008D36"/>
        <path d="M19.091 10.5 10.5 16.989 1.909 10.5 10.5 4.01l8.591 6.49z" fill="#FD0"/>
        <path d="M10.486 14.223a3.767 3.767 0 1 0 0-7.534 3.767 3.767 0 0 0 0 7.534z" fill="#002776"/>
        <path d="M7.162 8.684a3.737 3.737 0 0 0-.392 1.18c2.33-.169 5.493 1.103 6.85 2.68.235-.352.409-.746.515-1.168-1.675-1.638-4.618-2.701-6.973-2.692z" fill="#CBE9D4"/>
        <path d="M7 10.636h.583v.583H7v-.583zm.583 1.167h.584v.583h-.584v-.583z" fill="#88C9F9"/>
        <path d="M8.75 10.636h.583v.583H8.75v-.583zm1.167.583h.583v.584h-.583v-.584zm2.333 1.167h.583v.583h-.583v-.583zm-1.75.583h.583v.584H10.5v-.584zm1.75-3.5h.583v.584h-.583v-.584z" fill="#55ACEE"/>
        <path d="M11.083 11.803h.584v.583h-.584v-.583z" fill="#3B88C3"/>
    </g>
    <defs>
        <clipPath id="a">
            <path fill="#fff" d="M0 0h21v21H0z"/>
        </clipPath>
    </defs>
</svg>
