<svg width="15" height="21" fill="none" xmlns="http://www.w3.org/2000/svg">
    <path d="M7.39.857a6.642 6.642 0 0 0-4.76 2.034A7.101 7.101 0 0 0 .644 7.803c0 2.765 1.5 5.08 2.6 6.768l.2.308a58.819 58.819 0 0 0 3.517 4.737l.436.527.435-.527a58.935 58.935 0 0 0 3.517-4.737l.2-.314c1.094-1.688 2.595-3.997 2.595-6.762a7.1 7.1 0 0 0-1.99-4.914A6.642 6.642 0 0 0 7.39.857zm0 10.066a3.67 3.67 0 0 1-2.087-.654 3.86 3.86 0 0 1-1.384-1.744 4.007 4.007 0 0 1-.214-2.244 3.927 3.927 0 0 1 1.028-1.989A3.721 3.721 0 0 1 6.657 3.23a3.643 3.643 0 0 1 2.17.221 3.788 3.788 0 0 1 1.687 1.431c.413.639.633 1.39.633 2.158 0 1.03-.396 2.018-1.1 2.747a3.696 3.696 0 0 1-2.657 1.137z" fill="#0A191E"/>
</svg>
